<!--?xml version="1.0" encoding="utf-8"?-->
<!-- Generator: Adobe Illustrator 18.1.1, SVG Export Plug-In . SVG Version: 6.00 Build 0)  -->

<svg version="1.1" id="_x32_" xmlns="http://www.w3.org/2000/svg" xmlns:xlink="http://www.w3.org/1999/xlink" x="0px" y="0px" viewBox="0 0 512 512" style="width: 256px; height: 256px; opacity: 1;" xml:space="preserve">
<style type="text/css">
	.st0{fill:#4B4B4B;}
</style>
<g>
	<path class="st0" d="M378.415,0H208.296h-13.176l-9.31,9.3L57.014,138.102l-9.315,9.31v13.176v265.516
		c0,47.356,38.532,85.896,85.91,85.896h244.806c47.364,0,85.886-38.541,85.886-85.896V85.877C464.301,38.512,425.779,0,378.415,0z
		 M279.969,112.478c0-19.692,15.994-35.69,35.705-35.69s35.695,15.998,35.695,35.69v8.554c0,19.721-15.984,35.691-35.695,35.691
		s-35.705-15.97-35.705-35.691V112.478z M76.514,162.31L205.306,33.537v83.696c0,24.897-20.19,45.077-45.082,45.077H76.514z
		 M300.915,416.966H139.638v-22.352h161.277V416.966z M370.037,349.872H139.638v-22.381h230.399V349.872z M370.037,282.739H139.638
		v-22.371h230.399V282.739z M359.321,212.927c-11.545,0-43.647,0-43.647,0s-32.107,0-43.651,0
		c-11.545,0-16.788-16.793-10.104-28.667c5.033-8.937,13.276-19.07,26.696-24.839c7.679,5.358,17.013,8.535,27.06,8.535
		c10.047,0,19.376-3.178,27.041-8.535c13.438,5.769,21.673,15.902,26.71,24.839C376.104,196.134,370.875,212.927,359.321,212.927z" style="fill: rgb(81, 109, 176);"></path>
</g>
</svg>
